<?xml version="1.0" encoding="utf-8"?>
<!-- Generator: Adobe Illustrator 22.1.0, SVG Export Plug-In . SVG Version: 6.00 Build 0)  -->
<svg version="1.1" id="Layer_1" xmlns="http://www.w3.org/2000/svg" xmlns:xlink="http://www.w3.org/1999/xlink" x="0px" y="0px"
	 viewBox="0 0 337.2 346" style="enable-background:new 0 0 337.2 346;" xml:space="preserve">
<style type="text/css">
	.st0{fill:#20A544;}
</style>
<path class="st0" d="M6.8,209.3c0-29.4,0.1-58.7-0.1-88.1c-0.1-10.8,4.4-18.5,13.6-24c44.9-26.8,89.7-53.8,134.6-80.7
	c9.2-5.6,18.3-5.6,27.6-0.1c45.1,27.1,90.1,54.1,135.2,81.1c8.8,5.3,13.1,12.9,13.1,23.2c-0.1,58.6,0,117.2,0,175.8
	c0,22.2-15.5,37.6-37.8,37.7c-18.9,0-37.7,0-56.6,0c-15.5,0-25.6-10.1-25.6-25.5c0-20.9,0-41.7,0-62.6c0-9.2-4.7-13.8-13.8-13.8
	c-18.9,0-37.7,0-56.6,0c-8.9,0-13.6,4.7-13.6,13.7c0,20.9,0,41.7,0,62.6c0,15.7-10.1,25.7-25.8,25.7c-18.9,0-37.7,0-56.6,0
	c-22,0-37.5-15.5-37.5-37.5C6.7,267.5,6.8,238.4,6.8,209.3z"/>
</svg>
