<svg width="196" height="100" viewBox="0 0 196 100" fill="none" xmlns="http://www.w3.org/2000/svg">
<path d="M170.931 22.7722C168.279 22.1951 165.626 22.1951 162.974 22.7472C161.918 22.973 160.888 23.1988 159.806 23.3745C157.798 23.7258 156.227 22.3958 155.583 20.9405C155.042 19.7611 155.016 18.5064 155.197 17.2518C155.248 16.8001 155.351 16.3735 155.506 15.9469C155.583 15.7211 155.506 15.5705 155.325 15.42C154.295 14.6672 153.136 14.2908 151.875 14.065C150.407 13.814 148.939 13.7889 147.471 13.814C146.441 13.8391 145.437 13.9144 144.406 13.9646C146.673 13.1867 148.965 12.4841 151.437 12.9609C151.463 12.9609 151.463 12.986 151.488 12.986C151.463 12.986 151.437 12.986 151.437 12.9609C150.51 12.2834 149.505 11.7062 148.527 11.104C147.265 10.301 145.977 9.49802 144.715 8.69504C144.69 8.69504 144.69 8.66995 144.69 8.61976C146.647 9.24709 148.553 10.025 150.484 10.7527C148.733 9.02125 147.239 7.08909 145.849 5.05655C146.364 5.58351 146.853 6.11046 147.368 6.63741C149.093 8.36883 150.999 9.84932 153.085 11.104C153.162 11.1542 153.265 11.2796 153.368 11.2294C153.471 11.1542 153.42 11.0036 153.42 10.9032C153.368 10.3763 153.265 9.84932 153.059 9.37255C152.827 8.77032 152.364 8.39392 151.797 8.1179C151.076 7.7666 150.484 7.28983 149.892 6.73778C149.248 6.13555 148.862 5.50822 148.836 4.65506C148.836 4.42922 148.707 4.22848 148.63 4.00264C148.501 3.70152 148.269 3.57606 147.934 3.52587C146.235 3.32513 144.587 2.92364 143.093 2.04539C142.655 1.79445 142.604 1.81955 142.501 2.29632C142.449 2.57234 142.398 2.87345 142.295 3.12438C141.96 3.90227 142.192 4.55468 142.604 5.2071C142.99 5.80934 143.479 6.33629 143.994 6.86325C144.097 6.96362 144.2 7.064 144.278 7.18946C143.763 6.96362 143.248 6.73778 142.733 6.53704C142.037 6.28611 141.342 6.08536 140.595 5.98499C140.029 5.90971 139.462 5.9599 138.895 6.11046C138.329 6.26101 138.252 6.53704 138.458 7.064C138.741 7.84188 139.333 8.09281 140.106 8.14299C140.647 8.19318 141.187 8.16809 141.805 8.19318C141.007 8.77032 140.338 9.37256 140.08 10.3261C141.78 10.2257 143.505 9.74895 145.024 10.8781C144.484 10.9534 143.917 10.9534 143.376 11.0789C142.011 11.4051 141.033 12.1579 140.518 13.4627C140.441 13.6635 140.389 13.9144 140.363 14.1402C140.338 14.617 140.492 14.9683 140.904 15.2443C141.754 15.7964 142.655 15.696 143.582 15.4451C144.072 15.3196 144.561 15.1941 145.076 15.0436C144.973 15.42 144.87 15.7462 144.947 16.1226C146.415 15.4953 147.986 15.5705 149.583 15.4953C149.351 15.6458 149.119 15.6709 148.913 15.7211C147.188 16.223 145.488 16.8252 143.84 17.5529C143.582 17.6533 143.351 17.7536 143.042 17.6784C142.81 17.6282 142.707 17.4776 142.784 17.2518C142.887 17.0259 142.99 16.8001 143.093 16.5241C142.32 16.8754 141.548 16.8252 140.75 16.6244C139.23 16.223 138.535 15.0436 138.998 13.5882C139.101 13.262 139.204 12.9107 139.307 12.5845C139.436 12.1579 139.822 11.9571 140.209 11.7313C139.616 11.4553 139.127 11.104 138.638 10.7276C138.38 10.5268 138.329 10.301 138.483 10.025C138.638 9.69876 138.844 9.39765 139.024 9.04635C138.174 9.04635 137.891 8.39393 137.453 7.91716C137.041 7.44039 136.835 6.86325 136.912 6.23592C136.99 5.50822 137.479 5.10673 138.149 4.8809C139.179 4.55469 140.209 4.65506 141.265 4.93109C141.445 4.98127 141.599 5.08164 141.805 4.98127C141.702 4.65506 141.445 4.42922 141.29 4.1532C140.775 3.32513 140.801 2.52215 141.342 1.74427C141.651 1.2675 141.986 0.790729 142.501 0.489613C143.067 0.13831 143.634 0.188494 144.02 0.715449C144.715 1.6188 145.668 1.86973 146.776 1.84464C147.188 1.84464 147.625 1.81954 148.037 1.81954C148.501 1.81954 148.862 2.02029 149.145 2.37159C149.608 2.94873 149.943 3.60115 150.278 4.22848C150.948 5.43294 151.797 6.43667 153.008 7.11418C154.115 7.7666 154.604 8.72014 154.785 9.9246C154.862 10.5519 154.913 11.1793 154.862 11.8066C154.836 12.0073 154.888 12.1328 155.094 12.2332C155.609 12.4339 156.124 12.6597 156.613 12.8856C156.871 13.011 156.999 12.9358 157.18 12.735C158.132 11.656 159.291 10.853 160.682 10.4014C162.845 9.67367 164.519 10.2508 165.858 12.1579C166.45 13.011 166.914 13.9646 167.326 14.893C167.352 15.3949 167.197 15.8967 167.094 16.3735C167.043 16.2731 166.991 16.1728 166.94 16.0975C166.347 15.0185 165.755 13.9144 164.88 13.0361C164.261 12.4088 163.54 11.9571 162.613 11.907C160.605 11.8066 159.162 12.735 158.158 14.3661C157.669 15.169 157.592 16.0724 157.411 16.9507C157.308 17.4776 157.205 18.0297 157.308 18.6319C157.437 18.4311 157.514 18.2806 157.592 18.13C158.39 16.7499 159.317 15.4702 160.708 14.5668C160.888 14.4414 161.094 14.2657 161.377 14.2908C161.326 14.3661 161.3 14.4163 161.248 14.4664C159.909 15.7713 159.034 17.3521 158.416 19.0585C157.978 20.2128 158.107 20.4386 159.343 20.7899C159.549 20.8401 159.626 20.815 159.652 20.6142C159.806 19.1588 160.502 18.0046 161.609 17.0259C161.686 16.9507 161.738 16.8503 161.866 16.9005C161.918 17.0259 161.841 17.0761 161.789 17.1765C161.197 18.3057 160.605 19.4098 160.296 20.6644C160.218 20.9906 160.296 21.091 160.605 21.1412C161.48 21.2918 162.356 21.3168 163.231 21.2667C164.39 21.1914 165.549 21.091 166.708 21.1412C167.455 21.1663 168.176 21.3169 168.923 21.367C169.36 21.7685 169.824 22.0947 170.313 22.3958C170.494 22.4962 170.674 22.5966 170.854 22.697C170.854 22.697 170.854 22.7221 170.828 22.7472C170.957 22.7722 170.957 22.7722 170.931 22.7722ZM140.415 11.8568V11.8317H140.441L140.415 11.8568Z" fill="white"/>
<path d="M170.931 22.7722C170.931 22.7722 170.957 22.7722 170.957 22.7471C170.957 22.722 170.983 22.6969 170.983 22.6969C170.803 22.5966 170.622 22.5213 170.442 22.3958C169.927 22.0947 169.464 21.7685 169.051 21.367C168.459 20.815 167.97 20.1876 167.635 19.4348C167.197 18.4562 167.172 17.4023 167.223 16.3735C167.326 15.8716 167.481 15.3948 167.455 14.893C167.687 14.7424 167.687 14.4664 167.764 14.2657C168.382 12.5342 169.618 11.38 171.318 10.6774C172.219 10.301 173.146 10.2759 174.073 10.3261C174.408 10.3512 174.743 10.3511 175.078 10.3762C175.387 10.4013 175.541 10.301 175.644 9.99984C175.953 8.99612 176.391 8.04258 176.88 7.11414C177.472 5.95986 178.168 4.88086 179.121 3.97751C179.352 3.75167 179.636 3.57602 179.867 3.35018C180.022 3.22472 180.125 3.27491 180.254 3.37528C180.614 3.70149 180.923 4.07788 181.155 4.50447C181.284 4.7303 181.232 4.88086 180.975 4.98123C179.661 5.60856 178.58 6.46172 177.679 7.59091C177.086 8.31861 176.674 9.12159 176.417 9.99984C176.339 10.2508 176.391 10.4013 176.726 10.3762C177.704 10.3261 178.709 10.1755 179.687 10.2257C180.614 10.2508 181.438 10.5268 182.237 10.9785C182.777 11.2796 183.241 11.6309 183.756 11.9571C183.962 12.1077 183.962 12.3586 184.091 12.4088C183.396 11.932 182.546 11.5305 181.619 11.3047C180.949 11.1541 180.28 11.1792 179.636 11.2294C178.168 11.38 176.726 11.3298 175.258 11.2796C173.713 11.2294 172.374 11.8065 171.318 12.8604C170.339 13.8391 169.824 15.0435 169.747 16.3986C169.695 17.2266 169.721 18.0547 170.133 18.8326C170.519 19.5603 171.086 20.1625 171.73 20.6393C173.017 21.5928 174.511 22.0194 176.056 22.2954C176.494 22.3707 176.932 22.2703 177.344 22.1951C177.782 22.1198 178.219 22.0445 178.657 22.2202C179.249 22.446 179.867 22.3205 180.434 22.1951C181.258 22.0445 182.082 21.8187 182.829 21.4423C183.705 21.0157 184.529 20.4887 185.172 19.761C184.992 20.4386 184.503 20.8902 184.014 21.3419C182.958 22.3205 181.67 22.9479 180.254 23.3744C179.584 23.5752 178.915 23.7257 178.219 23.801C177.91 23.8261 177.601 23.7759 177.318 23.6505C176.674 23.3995 176.005 23.5501 175.387 23.7007C174.743 23.8512 174.15 23.7257 173.532 23.5752C172.657 23.4246 171.807 23.0733 170.931 22.7722Z" fill="white"/>
<path d="M166.785 8.87066C168.176 8.16805 169.232 7.06396 170.493 6.31117C171.987 5.40782 173.532 5.23216 174.974 6.58719C175.232 6.83812 175.464 7.08905 175.695 7.36507C175.747 7.44035 175.876 7.51563 175.773 7.616C175.721 7.69128 175.618 7.616 175.541 7.59091C174.871 7.41526 174.176 7.23961 173.481 7.49054C173.404 7.51563 173.249 7.49054 173.275 7.6411C173.3 7.74147 173.429 7.76656 173.507 7.76656C174.047 7.86694 174.537 8.04258 175.052 8.24333C175.283 8.3437 175.515 8.46917 175.695 8.64482C175.747 8.66991 175.824 8.7201 175.798 8.77029C175.773 8.87066 175.695 8.84556 175.618 8.84556C175.155 8.87065 174.717 8.92085 174.253 8.94594C173.61 8.94594 172.966 9.04631 172.348 9.17178C171.575 9.29724 170.828 9.4227 170.056 9.49798C169.077 9.59835 168.099 9.52308 167.197 9.12159C167.043 9.04631 166.94 8.94594 166.785 8.87066Z" fill="white"/>
<path d="M178.142 12.0073C180.048 12.1328 181.67 12.7099 182.88 14.065C183.936 15.2443 184.091 16.6244 183.473 18.0798C182.983 19.209 182.108 19.9869 181.026 20.5641C180.872 20.6393 180.691 20.7146 180.563 20.8903C180.485 20.9906 180.254 20.9404 180.099 21.0157C179.816 21.1412 179.507 21.2416 179.12 21.2667C179.223 21.1412 179.301 21.0659 179.429 21.0157C180.846 20.3884 181.902 19.4098 182.339 17.9544C182.932 15.9218 182.314 14.1151 180.279 12.9609C179.713 12.6347 179.146 12.4339 178.528 12.2332C178.399 12.183 178.296 12.1077 178.142 12.0073Z" fill="white"/>
<path d="M172.605 16.6495C172.219 14.0649 173.687 12.6848 175.283 12.5342C173.816 13.5631 173.043 14.9934 172.605 16.6495Z" fill="white"/>
<path d="M182.726 20.6895C184.297 19.209 184.503 17.3271 184.606 15.3949C185.378 17.3522 184.425 20.263 182.726 20.6895Z" fill="white"/>
<path d="M151.437 13.011C151.462 13.011 151.488 13.011 151.488 13.0356C151.488 13.011 151.462 13.011 151.437 13.011C151.462 13.011 151.437 13.011 151.437 13.011Z" fill="white"/>
<path d="M140.415 11.8562L140.44 11.8317H140.415V11.8562Z" fill="white"/>
<path d="M164.468 18.4562C164.545 18.0297 164.802 17.7285 165.034 17.4525C165.343 17.0761 165.729 16.775 166.09 16.4488C166.322 16.2481 166.399 16.3735 166.45 16.5743C166.476 16.6495 166.476 16.7499 166.476 16.8252C166.528 17.3521 166.528 17.3521 166.038 17.4525C165.549 17.6031 165.24 17.7787 164.468 18.4562Z" fill="white"/>
<path d="M6.68295 48.6432C4.82878 42.0186 3.48966 36.5483 2.66558 32.2574C1.84151 27.9665 1.27496 24.5789 0.96593 22.0696C0.656902 19.5603 0.52814 17.7536 0.605397 16.6495C0.682654 15.5454 0.708407 14.8679 0.708407 14.5919C0.63115 13.5129 0.785663 12.3837 1.17195 11.1792C1.55823 9.97478 2.48532 8.97106 4.0047 8.16808C5.78161 7.03889 7.45551 6.38647 9.00065 6.21082C10.5458 6.03517 11.3956 6.03517 11.5244 6.16064C11.1896 6.88834 10.9836 7.7415 10.9063 8.66994C10.8291 9.59839 10.9063 10.9534 11.1123 12.735C11.3184 14.5166 11.6531 16.9005 12.0909 19.8614C12.5287 22.8475 13.1468 26.7871 13.8936 31.6552C14.4344 35.2686 15.0524 38.7816 15.6963 42.1943C16.3401 45.6069 17.0096 48.8439 17.6534 51.8802C18.2972 54.9415 18.941 57.7519 19.5591 60.3616C20.1772 62.9713 20.7695 65.2799 21.3103 67.2873C21.7223 65.5559 22.1601 63.5234 22.5979 61.2148C23.0357 58.9062 23.525 56.4471 24.04 53.8374C24.555 51.2278 25.1474 48.5428 25.7912 45.8077C26.435 43.0725 27.156 40.3374 27.9029 37.6775C28.6497 34.3903 29.4737 31.078 30.3751 27.7407C31.1219 24.855 31.9975 21.7685 33.0018 18.4562C34.0061 15.144 35.0877 12.0826 36.2466 9.27217C37.8947 8.34373 39.4656 7.74149 40.9335 7.46547C42.4014 7.18945 43.689 7.13926 44.7964 7.26473C46.0325 7.3902 47.1913 7.66622 48.2987 8.06771C47.6034 9.47292 46.8823 11.104 46.1355 12.9358C45.3887 14.7676 44.6419 16.6997 43.9208 18.657C43.1997 20.6393 42.5044 22.6719 41.8091 24.7295C41.1138 26.8122 40.47 28.8197 39.8519 30.7518C38.4098 35.369 36.9677 40.0864 35.5255 44.9294C34.3667 48.9443 33.2336 53.0345 32.1262 57.1999C31.1734 60.7631 30.1948 64.5773 29.1905 68.6423C28.1861 72.7325 27.3105 76.5717 26.5637 80.1851C26.5637 80.5114 26.1774 80.8878 25.3791 81.2892C24.5808 81.6907 23.6537 82.042 22.5979 82.3432C21.542 82.6443 20.4089 82.845 19.1986 82.9454C17.9882 83.0457 16.9581 82.9203 16.0568 82.5941C14.8207 79.5076 13.6618 76.0197 12.5545 72.1052C11.4471 68.1907 10.4685 64.4769 9.5672 61.0141C8.53711 56.9239 7.58428 52.8086 6.68295 48.6432Z" fill="white"/>
<path d="M57.6211 75.4677C52.8055 75.4677 49.0971 73.8868 46.4961 70.7502C43.8694 67.6136 42.5818 63.4732 42.5818 58.4044C42.5818 54.8663 43.1226 51.5289 44.1784 48.4174C45.2343 45.3058 46.6764 42.5958 48.4533 40.3374C50.2302 38.054 52.3162 36.2723 54.6854 34.9675C57.0546 33.6627 59.5526 33.0103 62.1535 33.0103C64.703 33.0103 66.8662 33.8885 68.6431 35.6701C70.42 37.4517 71.3214 39.9861 71.3214 43.2482C71.3214 45.3811 70.8321 47.514 69.8792 49.6219C68.9264 51.7297 67.6645 53.6117 66.1194 55.2427C64.5743 56.8738 62.8746 58.2037 61.0204 59.2074C59.1663 60.2111 57.3636 60.713 55.664 60.713C54.5566 60.713 53.6295 60.5875 52.8827 60.3115C52.1359 60.0355 51.4406 59.634 50.8225 59.107C51.0285 62.9212 51.8784 65.581 53.3978 67.0866C54.9171 68.5922 56.8743 69.345 59.2693 69.345C60.9174 69.345 62.3853 69.0188 63.6472 68.3413C64.909 67.6638 65.9906 66.911 66.892 66.0327C67.7933 65.1545 68.5144 64.2762 69.0552 63.3728C69.596 62.4695 69.9823 61.792 70.1883 61.3152C70.3943 60.9137 70.7548 60.713 71.2699 60.713C71.7849 60.713 72.0424 61.1145 72.0424 61.9174C72.0424 62.6451 71.7849 63.7743 71.2699 65.2799C70.7548 66.7855 69.905 68.2911 68.7461 69.7967C67.5873 71.3023 66.0937 72.6322 64.2652 73.7614C62.4626 74.8906 60.2479 75.4677 57.6211 75.4677ZM62.3853 37.3012C61.9733 37.3012 61.2007 37.7277 60.0676 38.5558C58.9345 39.3839 57.7241 40.6134 56.4623 42.2194C55.2004 43.8254 54.0158 45.7575 52.96 47.9908C51.9041 50.2241 51.2346 52.7585 50.9513 55.5689C55.0717 54.6405 58.3422 53.16 60.7372 51.1525C63.1321 49.1451 64.3425 46.1841 64.3425 42.3198C64.3425 40.3876 64.1107 39.0577 63.6214 38.3551C63.1321 37.6525 62.7201 37.3012 62.3853 37.3012Z" fill="white"/>
<path d="M89.3993 75.2669C87.9572 75.2669 86.4893 74.8905 84.9699 74.1628C83.4505 73.4351 82.0599 72.306 80.7465 70.8004C79.4332 69.2948 78.3773 67.4128 77.5532 65.1795C76.7292 62.9462 76.3171 60.3115 76.3171 57.3003C76.3171 52.8839 76.9094 49.2203 78.0683 46.3095C79.2271 43.3987 80.6693 41.04 82.3432 39.2835C84.0171 37.5019 85.8712 36.2472 87.8542 35.5195C89.8371 34.7918 91.6655 34.4154 93.3137 34.4154C95.0391 34.4154 96.4555 34.6915 97.5886 35.2686C98.7217 35.8457 99.6745 36.4982 100.421 37.2259V35.3188C100.833 34.9926 101.297 34.6915 101.812 34.4154C102.327 34.1394 102.868 33.9387 103.409 33.8132C103.949 33.6125 104.542 33.5121 105.16 33.5121H106.705C107.117 33.5874 107.555 33.6375 107.992 33.7128C108.43 33.7881 108.765 33.9387 108.971 34.2147C108.559 42.9973 108.224 50.0986 107.941 55.5187C107.658 60.9388 107.452 65.1544 107.323 68.1907C107.117 71.7539 106.988 74.3134 106.911 75.9193C106.782 78.7298 106.396 81.5402 105.778 84.3004C105.16 87.0858 104.207 89.57 102.894 91.7782C101.58 93.9863 99.8805 95.768 97.7431 97.0979C95.6056 98.4278 93.0046 99.1053 89.9144 99.1053C87.2361 99.1053 85.0729 98.6035 83.4763 97.5997C81.8539 96.596 80.6178 95.3665 79.7679 93.886C78.9181 92.4055 78.3516 90.8497 78.0683 89.2187C77.785 87.5876 77.6563 86.082 77.6563 84.7521C77.6563 84.4259 77.8365 83.924 78.2228 83.2465C78.6091 82.569 79.1499 81.8915 79.871 81.1889C80.592 80.4863 81.4934 79.859 82.6007 79.332C83.7081 78.805 84.9442 78.4537 86.309 78.3283C85.691 80.135 85.3047 81.766 85.1759 83.2465C85.0472 84.0495 84.9957 84.8525 85.0729 85.6555C85.0729 87.8636 85.5107 89.6954 86.412 91.1759C87.3134 92.6564 88.6783 93.3841 90.5324 93.3841C92.5153 93.3841 94.1377 92.556 95.3739 90.925C96.61 89.2939 97.5628 87.3116 98.2066 85.003C98.8504 82.6945 99.314 80.2855 99.5457 77.7762C99.7775 75.2669 99.9063 73.134 99.9063 71.4026V68.4918C99.4942 69.2195 99.0049 69.9974 98.4126 70.8004C97.8203 71.6033 97.125 72.331 96.3009 73.0086C95.4769 73.6861 94.4983 74.2381 93.3652 74.6647C92.2321 75.0662 90.8929 75.2669 89.3993 75.2669ZM93.6227 40.1116C92.4638 40.1116 91.3307 40.6134 90.2749 41.6171C89.2191 42.6209 88.2662 43.9508 87.4421 45.5818C86.6181 47.2129 85.9743 49.0949 85.485 51.1525C84.9957 53.2352 84.7639 55.318 84.7639 57.3756C84.7639 58.7055 84.8412 60.0856 85.0214 61.4908C85.2017 62.896 85.5365 64.1758 86.0515 65.3552C86.5666 66.5345 87.2361 67.4881 88.0602 68.2158C88.8843 68.9435 89.9916 69.3199 91.3565 69.3199C92.3866 69.2446 93.3394 68.8431 94.2408 68.1154C94.9876 67.5132 95.7601 66.5345 96.5585 65.2046C97.3568 63.8747 97.9748 61.9676 98.4641 59.4834C99.0049 60.0103 99.4427 60.5122 99.7517 60.989C100.061 61.4657 100.318 61.8923 100.524 62.2938C100.602 61.7669 100.653 61.1144 100.679 60.3867C100.705 59.659 100.73 58.8059 100.73 57.8774C100.73 56.0707 100.627 54.1135 100.421 52.0057C100.215 49.8978 99.8548 47.9657 99.3397 46.2343C98.8247 44.5028 98.1036 43.0475 97.1765 41.8681C96.2494 40.6887 95.0648 40.1116 93.6227 40.1116Z" fill="white"/>
<path d="M123.212 18.8076C124.577 18.8076 125.89 19.209 127.126 20.012C128.363 20.815 128.981 21.894 128.981 23.2239C128.981 24.2277 128.723 25.2063 128.208 26.1347C127.693 27.0632 127.049 27.9163 126.302 28.644C125.556 29.3717 124.68 29.974 123.727 30.4006C122.774 30.8271 121.873 31.053 121.049 31.053C119.942 31.053 119.066 30.8773 118.371 30.5009C117.675 30.1245 117.16 29.6979 116.774 29.1961C116.388 28.6942 116.13 28.1422 116.001 27.5399C115.873 26.9377 115.795 26.3606 115.795 25.8336C115.795 25.1561 115.898 24.4033 116.104 23.5752C116.31 22.7472 116.697 21.9693 117.238 21.2667C117.778 20.5641 118.551 19.9869 119.504 19.5102C120.457 19.0334 121.693 18.8076 123.212 18.8076ZM116.001 38.8067C116.001 38.4052 116.542 37.9786 117.65 37.5019C118.757 37.0251 119.967 36.6487 121.306 36.3476C122.646 36.0465 123.882 35.8708 125.015 35.8457C126.148 35.8206 126.714 36.0716 126.714 36.5985C126.714 37.6023 126.637 39.0326 126.508 40.8644C126.38 42.6961 126.199 44.6534 125.993 46.6859C125.787 48.7185 125.581 50.7761 125.375 52.8086C125.169 54.8412 125.041 56.5726 124.963 57.9778C124.834 59.4583 124.68 61.0643 124.551 62.7957C124.422 64.2762 124.319 65.9072 124.242 67.7139C124.165 69.5206 124.165 71.3775 124.242 73.2344C124.242 73.5606 123.907 73.9119 123.212 74.2381C122.517 74.5643 121.77 74.8153 120.946 74.9909C120.122 75.1666 119.323 75.2418 118.577 75.2418C117.83 75.2418 117.418 75.1164 117.341 74.8403C117.212 74.5643 117.057 74.1127 116.929 73.4351C116.8 72.7576 116.645 71.8041 116.516 70.5745C116.388 69.345 116.285 67.739 116.207 65.7567C116.13 63.7743 116.182 61.3905 116.31 58.58C116.594 53.0094 116.619 48.7185 116.413 45.6571C116.207 42.646 116.053 40.3374 116.001 38.8067ZM120.637 28.1422C121.049 28.1422 121.512 27.9916 122.027 27.6905C122.543 27.3894 123.032 27.0381 123.47 26.6366C123.907 26.2351 124.294 25.8085 124.603 25.3318C124.912 24.855 125.066 24.4535 125.066 24.1273C125.066 23.6003 124.783 23.3243 124.242 23.3243C123.907 23.3243 123.47 23.4498 122.955 23.7258C122.44 24.0018 121.95 24.3029 121.461 24.6793C120.972 25.0557 120.585 25.4572 120.276 25.8838C119.967 26.3104 119.813 26.737 119.813 27.1385C119.813 27.816 120.096 28.1422 120.637 28.1422Z" fill="white"/>
<path d="M147.651 75.4676C142.835 75.4676 139.127 73.8868 136.526 70.7502C133.925 67.6135 132.612 63.4732 132.612 58.3793C132.612 54.8412 133.153 51.5038 134.208 48.3922C135.264 45.2807 136.706 42.5707 138.483 40.3123C140.26 38.0288 142.346 36.2472 144.715 34.9424C147.085 33.6375 149.583 32.9851 152.184 32.9851C154.733 32.9851 156.896 33.8634 158.673 35.645C160.45 37.4266 161.351 39.961 161.351 43.2231C161.351 45.356 160.862 47.4889 159.909 49.5967C158.956 51.7045 157.695 53.5865 156.149 55.2175C154.604 56.8486 152.905 58.1785 151.05 59.1823C149.196 60.186 147.394 60.6878 145.694 60.6878C144.587 60.6878 143.66 60.5624 142.913 60.2863C142.166 60.0103 141.471 59.6088 140.853 59.0819C141.059 62.896 141.908 65.5559 143.428 67.0615C144.947 68.5671 146.904 69.3198 149.299 69.3198C150.947 69.3198 152.415 68.9936 153.677 68.3161C154.939 67.6386 156.021 66.8858 156.922 66.0076C157.823 65.1293 158.544 64.2511 159.085 63.3477C159.626 62.4444 160.012 61.7668 160.218 61.2901C160.424 60.8886 160.785 60.6878 161.3 60.6878C161.815 60.6878 162.072 61.0893 162.072 61.8923C162.072 62.62 161.815 63.7492 161.3 65.2548C160.785 66.7604 159.935 68.2659 158.776 69.7715C157.617 71.2771 156.124 72.607 154.295 73.7362C152.467 74.8905 150.252 75.4676 147.651 75.4676ZM152.39 37.3011C151.978 37.3011 151.205 37.7277 150.072 38.5558C148.939 39.3838 147.728 40.6134 146.467 42.2193C145.205 43.8253 144.02 45.7575 142.964 47.9908C141.908 50.224 141.239 52.7584 140.956 55.5689C145.076 54.6404 148.346 53.1599 150.741 51.1525C153.136 49.145 154.347 46.1841 154.347 42.3197C154.347 40.3876 154.115 39.0576 153.626 38.355C153.162 37.6524 152.724 37.3011 152.39 37.3011Z" fill="white"/>
<path d="M184.348 55.2677C185.867 55.7947 187.31 56.2966 188.674 56.7733C190.039 57.2501 191.25 57.8021 192.28 58.4796C193.31 59.1572 194.134 59.935 194.752 60.8384C195.37 61.7417 195.679 62.8709 195.679 64.2009C195.679 65.8068 195.319 67.3124 194.598 68.7176C193.876 70.1228 192.821 71.3524 191.456 72.4314C190.091 73.5104 188.417 74.3636 186.46 74.9909C184.503 75.6182 182.314 75.9444 179.919 75.9444C177.24 75.9444 175.077 75.6935 173.429 75.1916C171.781 74.6898 170.519 74.1126 169.618 73.4351C168.716 72.7576 168.15 72.1052 167.867 71.4277C167.583 70.7502 167.455 70.2232 167.455 69.8217C167.455 69.0187 167.635 68.1405 167.97 67.1618C168.304 66.1832 168.974 65.1293 169.927 64.0001C170.339 63.5233 170.777 63.0968 171.266 62.6953C172.219 61.8923 173.197 61.3905 174.15 61.1897C174.021 62.7204 174.202 63.975 174.717 64.9537C175.232 65.9323 175.927 66.6851 176.777 67.212C177.627 67.739 178.605 68.1154 179.661 68.3161C180.717 68.5169 181.747 68.6172 182.7 68.6172C183.653 68.6172 184.631 68.4918 185.636 68.2158C186.64 67.9397 187.541 67.5884 188.365 67.1618C189.19 66.7353 189.859 66.2334 190.374 65.6563C190.889 65.0791 191.147 64.4769 191.147 63.7994C191.147 63.0717 190.838 62.4694 190.22 61.9927C189.602 61.5159 188.829 61.1395 187.902 60.8384C186.975 60.5373 185.971 60.3114 184.915 60.1358C183.859 59.9601 182.829 59.7845 181.876 59.5837C180.923 59.383 179.635 59.107 178.013 58.7306C176.391 58.3542 174.82 57.777 173.275 56.9741C171.729 56.1711 170.39 55.0921 169.257 53.7622C168.124 52.4322 167.558 50.6506 167.558 48.4424C167.558 45.908 168.227 43.6747 169.566 41.7677C170.905 39.8606 172.554 38.2546 174.511 36.9498C176.468 35.645 178.554 34.6663 180.743 33.9888C182.932 33.3113 184.889 32.9851 186.614 32.9851C187.516 32.9851 188.468 33.1106 189.499 33.3364C190.529 33.5622 191.481 33.9637 192.383 34.5409C193.284 35.118 194.005 35.8708 194.598 36.7993C195.19 37.7277 195.473 38.9322 195.473 40.4127C195.473 41.8931 195.344 43.0725 195.113 43.9759C194.881 44.8792 194.52 45.5818 194.082 46.0837C193.645 46.5855 193.104 46.9118 192.486 47.0372C191.868 47.1627 191.147 47.238 190.323 47.238C189.782 47.238 189.267 47.1627 188.778 47.0372C188.365 46.9118 187.928 46.7612 187.438 46.6357C186.949 46.5103 186.511 46.2593 186.099 45.9331C186.795 45.1301 187.31 44.3523 187.696 43.6246C188.082 42.8969 188.262 41.9935 188.262 40.9145C188.262 39.9861 188.005 39.1329 187.49 38.4052C186.975 37.6775 186.125 37.3011 184.966 37.3011C183.73 37.3011 182.545 37.527 181.412 38.0037C180.279 38.4805 179.275 39.1078 178.425 39.9108C177.575 40.7138 176.88 41.6422 176.365 42.671C175.85 43.6998 175.592 44.829 175.592 46.0335C175.592 47.8402 176.288 49.5465 177.704 51.1525C179.12 52.7584 181.335 54.1385 184.348 55.2677Z" fill="white"/>
</svg>
