<svg width="14" height="15" viewBox="0 0 14 15" fill="none" xmlns="http://www.w3.org/2000/svg">
<path d="M11.3476 11.4224L11.3656 11.4409L11.3855 11.4574L13.1364 12.9123L13.1867 12.9541C13.2908 13.1288 13.2705 13.3655 13.1258 13.516C12.9713 13.6768 12.7307 13.6798 12.5729 13.525L11.132 11.8249L11.132 11.8249L11.1294 11.8219L11.0859 11.7714C11.0547 11.727 11.036 11.6708 11.036 11.6105C11.036 11.536 11.0644 11.4684 11.1092 11.4212C11.1779 11.3521 11.2792 11.3525 11.3476 11.4224ZM5.92336 0.528137C7.3434 0.528137 8.70948 1.1149 9.7199 2.16622C10.731 3.21822 11.3023 4.64911 11.3023 6.14508C11.3023 9.26612 8.87555 11.762 5.92336 11.762C2.97118 11.762 0.544434 9.26612 0.544434 6.14508C0.544434 3.02404 2.97118 0.528137 5.92336 0.528137Z" fill="white" stroke="#222222"/>
</svg>
